Coordinates
version=1
nRows=11
nColumns=60
inDegrees=yes

Units are S.I. units (second, meters, Newtons, ...)
If the header above contains a line with 'inDegrees', this indicates whether rotational values are in degrees (yes) or radians (no).

endheader
time	pelvis_tilt	pelvis_list	pelvis_rotation	pelvis_tx	pelvis_ty	pelvis_tz	hip_flexion_r	hip_adduction_r	hip_rotation_r	knee_angle_r_beta	knee_angle_r	ankle_angle_r	subtalar_angle_r	mtp_angle_r	hip_flexion_l	hip_adduction_l	hip_rotation_l	knee_angle_l_beta	knee_angle_l	ankle_angle_l	subtalar_angle_l	mtp_angle_l	L5_S1_Flex_Ext	L5_S1_Lat_Bending	L5_S1_axial_rotation	L4_L5_Flex_Ext	L4_L5_Lat_Bending	L4_L5_axial_rotation	L3_L4_Flex_Ext	L3_L4_Lat_Bending	L3_L4_axial_rotation	L2_L3_Flex_Ext	L2_L3_Lat_Bending	L2_L3_axial_rotation	L1_L2_Flex_Ext	L1_L2_Lat_Bending	L1_L2_axial_rotation	L1_T12_Flex_Ext	L1_T12_Lat_Bending	L1_T12_axial_rotation	Abs_r3	Abs_r2	Abs_r1	Abs_t1	Abs_t2	arm_flex_r	arm_add_r	arm_rot_r	elbow_flex_r	pro_sup_r	wrist_flex_r	wrist_dev_r	arm_flex_l	arm_add_l	arm_rot_l	elbow_flex_l	pro_sup_l	wrist_flex_l	wrist_dev_l
     86.71000000	      1.16200920	     -5.81276429	     93.59510230	      0.41342805	      0.89065280	      0.40007498	     32.15339834	     -4.55192823	      0.06164915	      0.50979998	    -29.20938740	      6.15807806	      0.00000000	      0.00000000	     32.88066940	     -6.50248360	      0.76243261	      0.47210098	    -27.04939354	      4.39178938	      0.00000000	      0.00000000	    -10.22742691	      0.27897635	      0.14315337	    -18.99335452	      0.37103854	      0.15210046	    -16.80263968	      0.67830309	      0.15210046	    -11.68892622	      0.67830309	      0.12525920	     -9.49718863	      0.56888857	      0.11631212	     -5.84395174	      0.43213436	      0.10736503	    -73.05348770	      3.15583623	      0.79617612	      0.00000000	      0.00000000	     59.16634945	    -24.69843850	     23.11497245	     57.20543779	     64.03588517	     10.60659465	      4.36766573	     66.52721030	    -21.90060170	     29.54486672	     47.36168635	     61.48213607	     20.58146718	      0.45251695
     86.72000000	      1.20577084	     -5.02014091	     93.42831507	      0.41343768	      0.89325742	      0.39729981	     30.83202247	     -4.36264719	      0.11138990	      0.50050153	    -28.67662534	      6.19319190	      0.00000000	      0.00000000	     31.62898455	     -6.65971602	      0.67605457	      0.46679792	    -26.74555068	      4.58484163	      0.00000000	      0.00000000	    -10.19704839	      0.27694127	      0.15747275	    -18.93693856	      0.36833188	      0.16731480	    -16.75273079	      0.67335499	      0.16731480	    -11.65420660	      0.67335499	      0.13778866	     -9.46897913	      0.56473863	      0.12794661	     -5.82659345	      0.42898202	      0.11810457	    -72.83649692	      3.13281499	      0.87581622	      0.00000000	      0.00000000	     57.39178412	    -24.96942876	     22.64322866	     58.66038039	     64.34618776	      9.92554532	      4.95526822	     64.55482598	    -22.25351951	     28.55863825	     48.78575253	     61.81289848	     20.22489773	      1.08324605
     86.73000000	      1.24708133	     -4.35612707	     93.27208267	      0.41338052	      0.89556722	      0.39435439	     29.63282915	     -4.22196818	      0.07741184	      0.49093804	    -28.12867759	      6.33550640	      0.00000000	      0.00000000	     30.48266541	     -6.81401635	      0.44983401	      0.46066100	    -26.39393133	      4.87912501	      0.00000000	      0.00000000	    -10.12160866	      0.27262333	      0.16317728	    -18.79683944	      0.36258903	      0.17337586	    -16.62879086	      0.66285637	      0.17337586	    -11.56798653	      0.66285637	      0.14278012	     -9.39892580	      0.55593350	      0.13258154	     -5.78348719	      0.42229354	      0.12238296	    -72.29763848	      3.08396968	      0.90754306	      0.00000000	      0.00000000	     55.69022554	    -25.14974785	     22.50646823	     59.56693606	     64.51779608	      9.65136824	      5.19105183	     62.69989883	    -22.58498186	     28.18145658	     49.59972522	     61.93308193	     20.12077104	      1.32605426
     86.74000000	      1.29078082	     -3.39331358	     93.11454782	      0.41326172	      0.89828193	      0.39127627	     28.18882921	     -4.02839525	      0.23600810	      0.48474253	    -27.77370113	      6.31361588	      0.00000000	      0.00000000	     29.10595180	     -6.95204926	      0.43299940	      0.45829220	    -26.25820908	      5.07822413	      0.00000000	      0.00000000	    -10.11767944	      0.27157847	      0.16232520	    -18.78954248	      0.36119936	      0.17247052	    -16.62233555	      0.66031589	      0.17247052	    -11.56349583	      0.66031589	      0.14203455	     -9.39527713	      0.55380281	      0.13188922	     -5.78124203	      0.42067505	      0.12174390	    -72.26957245	      3.07214994	      0.90280406	      0.00000000	      0.00000000	     53.87969754	    -25.25406245	     21.63899296	     61.44185580	     66.68384083	      5.98850198	      8.74612599	     60.39686147	    -22.87498229	     26.17977607	     51.76759328	     63.73084146	     18.74037963	      4.98286825
     86.75000000	      1.29033952	     -2.47285044	     92.94668811	      0.41315202	      0.90089244	      0.38805499	     26.76213242	     -3.89633787	      0.35317817	      0.47768144	    -27.36913060	      6.40163202	      0.00000000	      0.00000000	     27.68602245	     -7.06040645	      0.28275217	      0.45330856	    -25.97266721	      5.33992584	      0.00000000	      0.00000000	    -10.08086231	      0.26513238	      0.17089384	    -18.72116939	      0.35262607	      0.18157470	    -16.56184869	      0.64464287	      0.18157470	    -11.52141753	      0.64464287	      0.14953211	     -9.36108874	      0.54065795	      0.13885124	     -5.76020472	      0.41069006	      0.12817038	    -72.00659138	      2.99923052	      0.95046027	      0.00000000	      0.00000000	     52.05731087	    -25.49548769	     21.20817800	     62.67407894	     66.64294431	      5.77777853	      8.75042616	     58.51544600	    -23.20953667	     25.68786248	     52.90284535	     63.64277206	     18.75320949	      4.90611617
     86.76000000	      1.28850296	     -1.81375041	     92.82459922	      0.41295140	      0.90280061	      0.38503503	     25.86033221	     -3.82981156	      0.38257376	      0.47866909	    -27.42571868	      6.35737335	      0.00000000	      0.00000000	     26.76844421	     -7.11258832	      0.30658711	      0.45500053	    -26.06961020	      5.33770478	      0.00000000	      0.00000000	     -9.95563310	      0.25900022	      0.16447756	    -18.48860624	      0.34447029	      0.17475740	    -16.35610963	      0.62973314	      0.17475740	    -11.37829307	      0.62973314	      0.14391786	     -9.24480090	      0.52815325	      0.13363802	     -5.68864876	      0.40119134	      0.12335817	    -71.11209169	      2.92986230	      0.91477483	      0.00000000	      0.00000000	     50.55028791	    -25.55662083	     21.44427896	     62.74735862	     66.65630114	      5.76489865	      8.79002770	     56.90684799	    -23.32985858	     25.89746545	     52.85413901	     63.64528974	     18.76368397	      4.94028542
     86.77000000	      1.25100692	     -0.61262191	     92.58284233	      0.41290074	      0.90590205	      0.38125354	     23.97134673	     -3.68472953	      0.65784847	      0.46693423	    -26.75336072	      6.60740499	      0.00000000	      0.00000000	     24.85494385	     -7.22070033	     -0.01486848	      0.44569748	    -25.53658475	      5.94962560	      0.00000000	      0.00000000	     -9.98493785	      0.24701783	      0.17879836	    -18.54302807	      0.32853372	      0.18997326	    -16.40425439	      0.60059916	      0.18997326	    -11.41178546	      0.60059916	      0.15644856	     -9.27201328	      0.50371877	      0.14527367	     -5.70539349	      0.38263063	      0.13409877	    -71.32141254	      2.79431515	      0.99442284	      0.00000000	      0.00000000	     48.38279710	    -25.83456750	     20.18518725	     64.93042721	     66.80381194	      5.45902616	      8.81005375	     54.62052646	    -23.73294445	     24.42911341	     55.07564194	     63.62485348	     18.69270226	      4.76487423
     86.78000000	      1.21653430	      0.22514397	     92.43648249	      0.41271294	      0.90816728	      0.37770943	     22.70090354	     -3.64410423	      0.65475542	      0.46266086	    -26.50851442	      6.69324135	      0.00000000	      0.00000000	     23.53544823	     -7.27340945	     -0.22840515	      0.44177505	    -25.31184603	      6.15414475	      0.00000000	      0.00000000	     -9.91308129	      0.23916765	      0.17556664	    -18.40958327	      0.31809297	      0.18653956	    -16.28620125	      0.58151222	      0.18653956	    -11.32966061	      0.58151222	      0.15362081	     -9.20528729	      0.48771067	      0.14264790	     -5.66433465	      0.37047069	      0.13167498	    -70.80814836	      2.70551227	      0.97644900	      0.00000000	      0.00000000	     46.46910593	    -25.90236661	     19.54939690	     66.08226940	     67.21977976	      4.95805579	      9.23951428	     52.58139273	    -23.87739453	     23.58192532	     56.17154492	     63.91490027	     18.49144949	      4.92700713
     86.79000000	      1.16131016	      1.09901246	     92.28125331	      0.41252789	      0.91043551	      0.37405787	     21.36749814	     -3.61111968	      0.77387164	      0.45791953	    -26.23685647	      6.87759136	      0.00000000	      0.00000000	     22.14151444	     -7.29051089	     -0.39125750	      0.43729351	    -25.05507233	      6.52320531	      0.00000000	      0.00000000	     -9.83876219	      0.22795142	      0.17264010	    -18.27156525	      0.30317539	      0.18343010	    -16.16410239	      0.55424108	      0.18343010	    -11.24472130	      0.55424108	      0.15106009	     -9.13627457	      0.46483853	      0.14027008	     -5.62186871	      0.35309675	      0.12948007	    -70.27729442	      2.57863203	      0.96017243	      0.00000000	      0.00000000	     44.58925046	    -26.00491829	     19.00120800	     67.12261155	     67.51096611	      4.60897618	      9.54994559	     50.63260704	    -24.03688266	     22.94185066	     57.13949419	     64.18458927	     18.33340973	      5.02566876
     86.80000000	      1.10056864	      1.93153437	     92.15221282	      0.41229520	      0.91256870	      0.37033493	     20.07791146	     -3.61186883	      0.83975944	      0.45332415	    -25.97356062	      7.07538126	      0.00000000	      0.00000000	     20.78893601	     -7.28352531	     -0.52944151	      0.43272736	    -24.79345124	      6.87070689	      0.00000000	      0.00000000	     -9.75379284	      0.21830910	      0.16676165	    -18.11376868	      0.29035110	      0.17718425	    -16.02450626	      0.53079674	      0.17718425	    -11.14760984	      0.53079674	      0.14591644	     -9.05737203	      0.44517591	      0.13549384	     -5.57331723	      0.33816079	      0.12507124	    -69.67036688	      2.46955617	      0.92747827	      0.00000000	      0.00000000	     42.69162629	    -26.09444496	     18.41933952	     68.16373229	     67.75310222	      4.32220907	      9.81205608	     48.66770239	    -24.14651078	     22.25076715	     58.10225970	     64.45815857	     18.17911038	      5.08576545
     86.81000000	      1.04977861	      2.74118383	     92.06264423	      0.41198290	      0.91463769	      0.36651771	     18.80742955	     -3.62914877	      0.83796568	      0.44897193	    -25.72419685	      7.25519771	      0.00000000	      0.00000000	     19.46885249	     -7.27002994	     -0.64544031	      0.42831609	    -24.54070450	      7.16004758	      0.00000000	      0.00000000	     -9.66535359	      0.21148760	      0.15564995	    -17.94952815	      0.28127850	      0.16537807	    -15.87920941	      0.51421094	      0.16537807	    -11.04653262	      0.51421094	      0.13619371	     -8.97524734	      0.43126550	      0.12646558	     -5.52278304	      0.32759428	      0.11673746	    -69.03865416	      2.39238997	      0.86567832	      0.00000000	      0.00000000	     40.76683152	    -26.19199656	     17.76362410	     69.24568990	     68.03606533	      4.01478992	     10.13163323	     46.66735493	    -24.23457117	     21.41082723	     59.13094915	     64.84719193	     17.99279705	      5.16126701
